<?xml version="1.0" encoding="iso-8859-1"?>
<!-- Generator: Adobe Illustrator 18.1.1, SVG Export Plug-In . SVG Version: 6.00 Build 0)  -->
<svg version="1.1" id="Capa_1" xmlns="http://www.w3.org/2000/svg" xmlns:xlink="http://www.w3.org/1999/xlink" x="0px"
     y="0px"
     viewBox="0 0 30.545 30.545" style="enable-background:new 0 0 30.545 30.545;" xml:space="preserve">
<g>
	<path style="fill:#030104;" d="M27.817,28.295V1.023C27.817,0.207,26.794,0,26.794,0H5.795C2.727,0,2.726,3.273,2.726,3.273v26.182
		c0,0.601,0.487,1.09,1.092,1.09h19.636c0.602,0,1.09-0.489,1.09-1.09l2.182-0.002C27.899,29.453,27.817,28.295,27.817,28.295z
		 M7.087,28.682H5.203V4.831h1.885L7.087,28.682L7.087,28.682z M23.021,10.959H12.604V5.351h10.417V10.959z M24.543,19.961V4.41
		c0-0.603-0.488-1.09-1.09-1.09L4.873,3.311c0-0.75,1.126-1.129,1.126-1.129h18.544c1.16,0,1.126,1.021,1.126,1.021v24.552
		c0,0-0.193,0.71-1.126,0.71L24.543,19.961"/>
</g>
    <g>
</g>
    <g>
</g>
    <g>
</g>
    <g>
</g>
    <g>
</g>
    <g>
</g>
    <g>
</g>
    <g>
</g>
    <g>
</g>
    <g>
</g>
    <g>
</g>
    <g>
</g>
    <g>
</g>
    <g>
</g>
    <g>
</g>
</svg>
